External Loads File
version=1
nRows=31
nColumns=13
Range=5.000000e-03-10 seconds
endheader
time 	forceRightX 	forceRightY 	forceRightZ 	pointRightX 	pointRightY 	pointRightZ 	forceLeftX 	forceLeftY 	forceLeftZ 	pointLeftX 	pointLeftY 	pointLeftZ 		
7.505000 46.034435 -10.731125 -0.000000 0.110143 0.349063 -0.164657 -234.883530 652.089092 -0.000000 0.399499 0.277902 -0.416953
7.510000 47.502226 -7.467187 -0.000000 0.112775 0.359860 -0.164990 -225.943521 652.431552 -0.000000 0.397344 0.267385 -0.416811
7.515000 48.898031 -4.720393 -0.000000 0.115850 0.370964 -0.165404 -212.436267 654.849990 -0.000000 0.394495 0.256909 -0.416801
7.520000 50.180389 -2.435260 -0.000000 0.119669 0.381063 -0.165695 -196.921968 658.306121 -0.000000 0.390926 0.246606 -0.416828
7.525000 51.249299 -0.820952 -0.000000 0.123830 0.391240 -0.166017 -177.989771 662.959101 -0.000000 0.386796 0.236574 -0.416692
7.530000 52.003070 0.071537 -0.000000 0.128730 0.401229 -0.166245 -156.029010 668.284755 -0.000000 0.382055 0.226842 -0.416610
7.535000 52.333380 0.272651 -0.000000 0.134190 0.410735 -0.166138 -132.126791 673.585964 -0.000000 0.376715 0.217437 -0.416551
7.540000 52.127543 -0.230085 -0.000000 0.140118 0.420064 -0.166594 -106.458029 678.439427 -0.000000 0.370881 0.208387 -0.416479
7.545000 51.271942 -1.353422 -0.000000 0.146541 0.428931 -0.166901 -79.941731 682.369016 -0.000000 0.364554 0.199627 -0.416403
7.550000 49.683875 -2.934106 -0.000000 0.153340 0.437287 -0.167321 -53.846308 684.987590 -0.000000 0.357783 0.191455 -0.416244
7.555000 47.341336 -4.821707 -0.000000 0.160475 0.445122 -0.167535 -28.594276 686.093305 -0.000000 0.350632 0.183732 -0.416056
7.560000 44.259174 -6.962337 -0.000000 0.168616 0.452916 -0.167937 -2.848296 685.519868 -0.000000 0.343101 0.176506 -0.415819
7.565000 40.514146 -9.060019 -0.000000 0.177162 0.459571 -0.168007 20.634211 682.992110 -0.000000 0.335212 0.169925 -0.415561
7.570000 36.168268 -11.140948 -0.000000 0.186126 0.465676 -0.168253 42.524087 678.384024 -0.000000 0.327082 0.163781 -0.415277
7.575000 31.303972 -13.245250 -0.000000 0.195004 0.471210 -0.168497 61.758332 671.655428 -0.000000 0.318687 0.158121 -0.415023
7.580000 25.943953 -15.660755 -0.000000 0.204706 0.476287 -0.168986 80.125472 662.517999 -0.000000 0.310012 0.153135 -0.414822
7.585000 20.155801 -18.619034 -0.000000 0.214572 0.480598 -0.169397 96.588861 650.829121 -0.000000 0.301137 0.148625 -0.414586
7.590000 13.937856 -22.488804 -0.000000 0.225057 0.484236 -0.169296 112.494732 636.053020 -0.000000 0.292039 0.144692 -0.414459
7.595000 7.359126 -27.551440 -0.000000 0.235374 0.487234 -0.169719 126.713517 617.916575 -0.000000 0.282748 0.141605 -0.414395
7.600000 0.415763 -34.068767 -0.000000 0.246165 0.489515 -0.169843 140.586214 595.658015 -0.000000 0.273308 0.138907 -0.414348
7.605000 -6.727298 -42.143399 -0.000000 0.256719 0.491261 -0.169803 152.728871 569.106303 -0.000000 0.263745 0.136880 -0.414395
7.610000 -13.921601 -51.699004 -0.000000 0.267464 0.491994 -0.169675 163.497871 537.815519 -0.000000 0.254157 0.135717 -0.414512
7.615000 -20.880301 -62.405788 -0.000000 0.277965 0.492297 -0.169550 171.983047 501.876432 -0.000000 0.244510 0.134980 -0.414688
7.620000 -27.314104 -73.629248 -0.000000 0.288245 0.492046 -0.169350 177.485993 461.676881 -0.000000 0.235100 0.134996 -0.414812
7.625000 -33.067488 -84.376111 -0.000000 0.298241 0.491193 -0.169126 179.984934 417.681540 -0.000000 0.225716 0.135747 -0.414997
7.630000 -37.938672 -93.429066 -0.000000 0.307896 0.489865 -0.168882 178.921150 370.860000 -0.000000 0.216618 0.137307 -0.415089
7.635000 -41.819736 -99.437700 -0.000000 0.317112 0.487873 -0.168636 174.102276 322.387973 -0.000000 0.207878 0.139463 -0.415132
7.640000 -44.762325 -101.056389 -0.000000 0.325911 0.485420 -0.168491 165.621903 273.649969 -0.000000 0.199563 0.142317 -0.415229
7.645000 -46.990199 -97.065603 -0.000000 0.334216 0.482497 -0.168389 153.782627 226.228553 -0.000000 0.191712 0.145709 -0.415050
7.650000 -48.964649 -86.394858 -0.000000 0.341923 0.479062 -0.168355 139.307941 181.643064 -0.000000 0.184320 0.149739 -0.415018
7.655000 -51.312981 -68.175114 -0.000000 0.348903 0.475192 -0.168565 123.192869 141.205172 -0.000000 0.177280 0.154238 -0.414905
